PathFileType	4	(x/y/z)	S01_M20_T14.trc
DataRate	CameraRate	NumFrames	NumMarkers	Units	OrigDataRate	OrigDataStartFrame	OrigNumFrames
240	240	9	51	mm	240	61	485
Frame#	Time	Sternum			R.Acromium			L.Acromium			Top.Head			R.ASIS			L.ASIS			R.PSIS			L.PSIS			R.Great.Tro			L.Great.Tro			R.Iliac.Crest			L.Iliac.Crest			V.Sacral			R.Thigh.Upper.Post			R.Thigh.Lower.Ant			R.Thigh.Lower.Post			R.Thigh.Upper.Ant			R.Knee.Lat			R.Knee.Med			R.Shank.Upper.Post			R.Shank.Lower.Ant			R.Shank.Lower.Post			R.Shank.Upper.Ant			R.Ankle.Lat			R.Ankle.Med			R.Heel.Upper			R.Heel.Med			R.Heel.Lat			R.Toe.Lat			R.Toe.Med			R.Toe.Tip			L.Thigh.Upper.Post			L.Thigh.Lower.Ant			L.Thigh.Lower.Post			L.Thigh.Upper.Ant			L.Knee.Lat			L.Knee.Med			L.Shank.Upper.Post			L.Shank.Lower.Ant			L.Shank.Lower.Post			L.Shank.Upper.Ant			L.Ankle.Lat			L.Ankle.Med			L.Heel.Upper			L.Heel.Med			L.Heel.Lat			L.Toe.Lat			L.Toe.Med			L.Toe.Tip			Cervical.Spine			Back			
		X1	Y1	Z1	X2	Y2	Z2	X3	Y3	Z3	X4	Y4	Z4	X5	Y5	Z5	X6	Y6	Z6	X7	Y7	Z7	X8	Y8	Z8	X9	Y9	Z9	X10	Y10	Z10	X11	Y11	Z11	X12	Y12	Z12	X13	Y13	Z13	X14	Y14	Z14	X15	Y15	Z15	X16	Y16	Z16	X17	Y17	Z17	X18	Y18	Z18	X19	Y19	Z19	X20	Y20	Z20	X21	Y21	Z21	X22	Y22	Z22	X23	Y23	Z23	X24	Y24	Z24	X25	Y25	Z25	X26	Y26	Z26	X27	Y27	Z27	X28	Y28	Z28	X29	Y29	Z29	X30	Y30	Z30	X31	Y31	Z31	X32	Y32	Z32	X33	Y33	Z33	X34	Y34	Z34	X35	Y35	Z35	X36	Y36	Z36	X37	Y37	Z37	X38	Y38	Z38	X39	Y39	Z39	X40	Y40	Z40	X41	Y41	Z41	X42	Y42	Z42	X43	Y43	Z43	X44	Y44	Z44	X45	Y45	Z45	X46	Y46	Z46	X47	Y47	Z47	X48	Y48	Z48	X49	Y49	Z49	X50	Y50	Z50	X51	Y51	Z51	

61	0.25	-1014.7	1293.7	228.68	-1130.3	1555.9	382.82	-1128	1558.8	56.417	-1020.9	1850.5	203.58	-1086.3	1047.7	393.42	-1061.6	1036.3	130.24	-1314.2	1090.5	287.01	-1314.9	1091.7	183.65	-1169.4	1003.6	478.6	-1166.1	992.09	48.519	-1172.6	1155.2	447.03	-1161.9	1115.7	44.715	-1329.1	1055.9	232.49	-1056.6	709.06	473.51	-960.99	672.37	458.18	-1016.4	630.53	455.64	-999.42	753.94	474.15	-978.63	580.26	456.37	-951.05	585.06	311.06	-1047.3	428.46	461.53	-987.04	341.13	429.97	-1055.5	358.68	447.42	-983.45	412.46	449.43	-1065.3	154.79	409.89	-1015.5	162.47	325.32	-1121.3	120.48	338.1	-1097	92.576	313.15	-1116.6	90.673	374.92	-944.43	86.438	469.42	-887.38	95.329	357.14	-838.98	120.33	422.49	-1217.9	713.43	75.661	-1136.7	638.2	80.464	-1213.7	623.94	93.522	-1150	731.12	59.835	-1169.8	534.51	89.516	-1153.5	538.09	232.45	-1234	395.27	74.243	-1176.8	303.74	103.06	-1237.5	317.03	80.113	-1172.3	380.05	92.167	-1262.6	105.73	122.25	-1238.3	117.17	220.91	-1334.3	74.896	168.23	-1323.9	50.712	201.46	-1326.5	49.776	139.53	-1114.6	40.784	107.84	-1090.4	47.802	228.93	-1026.3	58.653	178.69	-1202.5	1617.4	217.04	-1318.2	1311	240.73
62	0.25417	-1010.2	1293.1	228.95	-1125.6	1555.4	383.09	-1123.1	1558.4	56.719	-1015.8	1849.9	204.13	-1081.9	1047.2	393.7	-1057.3	1035.9	130.41	-1309.9	1090.1	287.15	-1310.6	1091.4	183.78	-1165	1003	478.68	-1161.8	991.9	48.619	-1168.4	1154.6	447.2	-1157.4	1115.5	44.938	-1324.8	1055.6	232.58	-1051.5	708.7	472.8	-955.74	672.5	457.43	-1011	630.4	454.69	-994.57	753.84	473.71	-972.44	580.62	455.36	-945.06	585.67	310.08	-1038	427.55	461.34	-976.15	341.38	429.66	-1044.8	357.63	447.5	-973.97	412.81	448.91	-1050.5	153.31	410.38	-1001.2	161.77	325.6	-1105.9	117.48	338.84	-1081.2	89.999	313.95	-1100.4	87.926	375.8	-927.95	87.909	469.71	-871.5	97.618	357.3	-823.43	123.88	422.4	-1215.3	713.62	75.47	-1134.6	637.92	80.45	-1211.8	624.12	93.292	-1147.2	730.88	59.872	-1168.5	534.38	89.361	-1152.5	537.89	232.29	-1233.2	395.26	74.129	-1176.3	303.59	102.99	-1237	317.03	80.027	-1171.6	379.89	92.069	-1262.6	105.74	122.3	-1238.3	117.16	220.94	-1334.3	74.897	168.26	-1323.9	50.697	201.49	-1326.5	49.785	139.55	-1114.6	40.776	107.83	-1090.5	47.761	228.94	-1026.3	58.654	178.66	-1197.6	1617	217.32	-1313.7	1310.8	240.83
63	0.25833	-1005.7	1292.4	229.24	-1120.9	1554.8	383.37	-1118.2	1558	57.038	-1010.6	1849.4	204.7	-1077.5	1046.7	393.99	-1053	1035.5	130.59	-1305.5	1089.7	287.3	-1306.2	1091.2	183.91	-1160.6	1002.4	478.76	-1157.5	991.68	48.722	-1164.1	1154	447.38	-1152.9	1115.2	45.171	-1320.4	1055.2	232.68	-1046.5	708.28	472.09	-950.53	672.55	456.69	-1005.6	630.2	453.75	-989.75	753.66	473.27	-966.31	580.93	454.36	-939.15	586.19	309.1	-1028.8	426.65	461.17	-965.32	341.66	429.34	-1034.2	356.63	447.6	-964.55	413.17	448.4	-1035.7	151.96	410.88	-986.99	161.18	325.89	-1090.7	114.65	339.64	-1065.4	87.598	314.79	-1084.4	85.357	376.72	-911.57	89.511	469.95	-855.8	100.04	357.38	-808.06	127.52	422.19	-1212.7	713.81	75.278	-1132.5	637.63	80.429	-1209.8	624.29	93.064	-1144.4	730.62	59.894	-1167.2	534.25	89.205	-1151.4	537.69	232.11	-1232.5	395.26	74.018	-1175.8	303.45	102.91	-1236.4	317.04	79.942	-1170.9	379.73	91.965	-1262.5	105.76	122.35	-1238.3	117.15	220.97	-1334.3	74.9	168.29	-1323.9	50.684	201.52	-1326.5	49.797	139.57	-1114.6	40.766	107.82	-1090.5	47.717	228.95	-1026.3	58.647	178.64	-1192.7	1616.6	217.63	-1309.2	1310.5	240.95
64	0.2625	-1001.1	1291.7	229.53	-1116.2	1554.1	383.66	-1113.2	1557.5	57.374	-1005.5	1848.7	205.28	-1073.1	1046.1	394.29	-1048.7	1035.1	130.78	-1301.2	1089.3	287.45	-1301.9	1090.8	184.05	-1156.2	1001.8	478.85	-1153.1	991.45	48.827	-1159.8	1153.3	447.58	-1148.3	1115	45.409	-1316.1	1054.9	232.78	-1041.5	707.81	471.38	-945.36	672.53	455.94	-1000.2	629.94	452.81	-984.94	753.42	472.81	-960.21	581.18	453.37	-933.32	586.63	308.12	-1019.5	425.77	461.01	-954.58	341.98	429.02	-1023.6	355.66	447.72	-955.19	413.53	447.89	-1021.1	150.75	411.4	-972.9	160.72	326.18	-1075.5	111.98	340.47	-1049.8	85.369	315.65	-1068.4	82.965	377.66	-895.32	91.24	470.14	-840.3	102.57	357.38	-792.9	131.27	421.88	-1210.2	713.98	75.085	-1130.5	637.33	80.4	-1207.8	624.44	92.837	-1141.6	730.35	59.902	-1165.9	534.11	89.046	-1150.3	537.49	231.92	-1231.7	395.26	73.908	-1175.3	303.31	102.82	-1235.8	317.04	79.858	-1170.1	379.57	91.855	-1262.5	105.78	122.39	-1238.2	117.15	220.99	-1334.4	74.908	168.32	-1323.9	50.675	201.54	-1326.5	49.813	139.59	-1114.6	40.754	107.82	-1090.5	47.671	228.97	-1026.3	58.633	178.62	-1187.8	1616.2	217.96	-1304.6	1310.2	241.09
65	0.26667	-996.57	1291	229.84	-1111.5	1553.5	383.97	-1108.3	1557	57.727	-1000.3	1848.1	205.88	-1068.6	1045.5	394.59	-1044.4	1034.7	130.97	-1296.8	1088.8	287.6	-1297.5	1090.5	184.2	-1151.8	1001.1	478.93	-1148.8	991.2	48.931	-1155.6	1152.6	447.79	-1143.8	1114.7	45.65	-1311.7	1054.5	232.88	-1036.5	707.28	470.68	-940.22	672.42	455.2	-994.88	629.61	451.89	-980.14	753.11	472.35	-954.17	581.37	452.39	-927.56	586.98	307.13	-1010.4	424.9	460.84	-943.91	342.33	428.7	-1013.1	354.74	447.85	-945.89	413.91	447.4	-1006.5	149.67	411.91	-958.93	160.38	326.48	-1060.4	109.47	341.33	-1034.2	83.31	316.52	-1052.5	80.748	378.62	-879.21	93.092	470.28	-824.99	105.23	357.31	-777.93	135.09	421.49	-1207.6	714.13	74.894	-1128.4	637.01	80.363	-1205.9	624.59	92.614	-1138.8	730.06	59.894	-1164.6	533.98	88.884	-1149.2	537.29	231.72	-1230.9	395.26	73.799	-1174.7	303.17	102.73	-1235.3	317.05	79.776	-1169.4	379.41	91.738	-1262.4	105.8	122.44	-1238.2	117.15	221.01	-1334.4	74.918	168.35	-1323.9	50.669	201.57	-1326.5	49.831	139.62	-1114.6	40.741	107.81	-1090.6	47.624	228.98	-1026.3	58.611	178.6	-1182.9	1615.8	218.31	-1300.1	1309.8	241.25
66	0.27083	-992.02	1290.3	230.16	-1106.7	1552.8	384.3	-1103.3	1556.5	58.099	-995.05	1847.4	206.5	-1064.2	1044.8	394.9	-1040	1034.2	131.15	-1292.5	1088.3	287.76	-1293.1	1090.1	184.35	-1147.3	1000.4	479.02	-1144.4	990.93	49.032	-1151.3	1151.8	448.03	-1139.3	1114.4	45.89	-1307.3	1054	232.98	-1031.6	706.69	469.99	-935.11	672.25	454.46	-989.61	629.23	450.98	-975.35	752.73	471.88	-948.17	581.51	451.43	-921.88	587.24	306.15	-1001.2	424.04	460.68	-933.34	342.7	428.39	-1002.6	353.86	447.98	-936.66	414.29	446.93	-991.95	148.72	412.43	-945.08	160.15	326.77	-1045.4	107.13	342.2	-1018.8	81.419	317.39	-1036.7	78.705	379.58	-863.25	95.06	470.38	-809.87	107.98	357.18	-763.17	139	421.02	-1205	714.28	74.705	-1126.3	636.69	80.317	-1203.9	624.73	92.395	-1136	729.75	59.872	-1163.3	533.84	88.718	-1148	537.1	231.51	-1230.1	395.26	73.69	-1174.2	303.03	102.63	-1234.7	317.06	79.696	-1168.6	379.26	91.614	-1262.4	105.82	122.48	-1238.2	117.15	221.03	-1334.4	74.933	168.38	-1323.9	50.666	201.6	-1326.6	49.854	139.64	-1114.6	40.725	107.8	-1090.6	47.578	228.99	-1026.3	58.583	178.59	-1177.9	1615.3	218.69	-1295.6	1309.5	241.42
67	0.275	-987.47	1289.5	230.49	-1102	1552.1	384.65	-1098.4	1556	58.488	-989.81	1846.7	207.14	-1059.7	1044.2	395.23	-1035.6	1033.8	131.33	-1288.1	1087.8	287.93	-1288.7	1089.7	184.5	-1142.9	999.58	479.11	-1140	990.63	49.128	-1147	1151	448.27	-1134.8	1114	46.125	-1302.9	1053.5	233.09	-1026.6	706.07	469.32	-930.03	672.01	453.71	-984.36	628.79	450.08	-970.56	752.29	471.4	-942.23	581.59	450.48	-916.27	587.42	305.17	-992.16	423.19	460.5	-922.86	343.11	428.07	-992.2	353.02	448.1	-927.52	414.67	446.47	-977.55	147.9	412.93	-931.35	160.03	327.06	-1030.5	104.94	343.08	-1003.4	79.693	318.25	-1020.9	76.831	380.53	-847.47	97.14	470.45	-794.96	110.83	357	-748.63	142.98	420.5	-1202.5	714.42	74.522	-1124.3	636.35	80.261	-1201.9	624.87	92.182	-1133.3	729.43	59.836	-1161.9	533.71	88.549	-1146.8	536.9	231.29	-1229.3	395.27	73.581	-1173.7	302.9	102.53	-1234.2	317.08	79.618	-1167.9	379.1	91.483	-1262.3	105.84	122.53	-1238.1	117.16	221.04	-1334.4	74.951	168.41	-1323.9	50.665	201.62	-1326.6	49.879	139.66	-1114.6	40.706	107.79	-1090.7	47.533	229	-1026.4	58.549	178.58	-1173	1614.8	219.08	-1291.1	1309.1	241.62
68	0.27917	-982.9	1288.7	230.83	-1097.2	1551.3	385.01	-1093.4	1555.4	58.896	-984.53	1845.9	207.8	-1055.2	1043.5	395.57	-1031.1	1033.3	131.51	-1283.7	1087.2	288.1	-1284.2	1089.2	184.66	-1138.4	998.78	479.2	-1135.7	990.32	49.217	-1142.8	1150.2	448.53	-1130.3	1113.7	46.353	-1298.5	1053	233.2	-1021.7	705.39	468.67	-924.96	671.69	452.97	-979.15	628.29	449.21	-965.76	751.8	470.91	-936.33	581.62	449.56	-910.74	587.52	304.2	-983.15	422.36	460.31	-912.49	343.53	427.75	-981.89	352.21	448.21	-918.45	415.06	446.02	-963.26	147.2	413.42	-917.75	160.02	327.35	-1015.7	102.91	343.95	-988.22	78.127	319.09	-1005.4	75.124	381.46	-831.88	99.323	470.48	-780.26	113.77	356.78	-734.32	147.02	419.94	-1199.9	714.54	74.343	-1122.2	636.01	80.196	-1199.9	624.99	91.974	-1130.5	729.09	59.785	-1160.6	533.57	88.376	-1145.6	536.7	231.07	-1228.6	395.28	73.473	-1173.1	302.77	102.41	-1233.6	317.1	79.541	-1167.1	378.95	91.345	-1262.3	105.87	122.57	-1238.1	117.17	221.06	-1334.4	74.973	168.44	-1323.9	50.667	201.65	-1326.6	49.909	139.69	-1114.6	40.686	107.78	-1090.7	47.491	229.01	-1026.4	58.51	178.57	-1168	1614.2	219.51	-1286.5	1308.6	241.84
69	0.28333	-978.33	1287.9	231.18	-1092.5	1550.5	385.4	-1088.4	1554.8	59.323	-979.23	1845.1	208.47	-1050.7	1042.8	395.91	-1026.7	1032.8	131.68	-1279.3	1086.6	288.28	-1279.7	1088.7	184.83	-1133.9	997.94	479.29	-1131.3	989.98	49.296	-1138.5	1149.3	448.8	-1125.8	1113.3	46.573	-1294.1	1052.4	233.32	-1016.7	704.68	468.05	-919.92	671.32	452.23	-973.96	627.75	448.36	-960.95	751.25	470.41	-930.47	581.6	448.65	-905.28	587.53	303.24	-974.21	421.54	460.11	-902.21	343.98	427.44	-971.65	351.43	448.31	-909.47	415.45	445.6	-949.09	146.61	413.89	-904.27	160.12	327.63	-1001	101.03	344.8	-973.13	76.718	319.9	-989.89	73.578	382.36	-816.5	101.6	470.49	-765.76	116.78	356.53	-720.23	151.12	419.35	-1197.3	714.65	74.173	-1120.1	635.65	80.121	-1197.9	625.11	91.774	-1127.8	728.74	59.721	-1159.3	533.43	88.199	-1144.4	536.49	230.85	-1227.8	395.3	73.364	-1172.6	302.64	102.29	-1233.1	317.12	79.466	-1166.4	378.8	91.2	-1262.2	105.9	122.62	-1238.1	117.19	221.07	-1334.5	75	168.47	-1323.9	50.67	201.68	-1326.6	49.943	139.72	-1114.6	40.662	107.76	-1090.7	47.451	229.01	-1026.4	58.466	178.56	-1163.1	1613.6	219.95	-1281.9	1308.2	242.07
